<svg xmlns="http://www.w3.org/2000/svg" width="48" height="48" viewBox="0 0 48 48" fill="none">
  <defs>
    <linearGradient id="hex-grad" x1="4" y1="4" x2="44" y2="44" gradientUnits="userSpaceOnUse">
      <stop offset="0%" stop-color="#CFFAFE"/>
      <stop offset="25%" stop-color="#93C5FD"/>
      <stop offset="50%" stop-color="#60A5FA"/>
      <stop offset="76%" stop-color="#6366F1"/>
      <stop offset="100%" stop-color="#4338CA"/>
    </linearGradient>
  </defs>
  <!-- 右 -->
  <polygon points="37,18 42.2,21 42.2,27 37,30 31.8,27 31.8,21" fill="url(#hex-grad)"/>
  <!-- 左 -->
  <polygon points="11,18 16.2,21 16.2,27 11,30 5.8,27 5.8,21" fill="url(#hex-grad)"/>
  <!-- 右上 -->
  <polygon points="30.5,6.74 35.7,9.74 35.7,15.74 30.5,18.74 25.3,15.74 25.3,9.74" fill="url(#hex-grad)"/>
  <!-- 左上 -->
  <polygon points="17.5,6.74 22.7,9.74 22.7,15.74 17.5,18.74 12.3,15.74 12.3,9.74" fill="url(#hex-grad)"/>
  <!-- 右下 -->
  <polygon points="30.5,29.26 35.7,32.26 35.7,38.26 30.5,41.26 25.3,38.26 25.3,32.26" fill="url(#hex-grad)"/>
  <!-- 左下 -->
  <polygon points="17.5,29.26 22.7,32.26 22.7,38.26 17.5,41.26 12.3,38.26 12.3,32.26" fill="url(#hex-grad)"/>
</svg>
